<?xml version="1.0" encoding="UTF-8"?>
<svg width="444px" height="512px" viewBox="0 0 444 512" version="1.1" xmlns="http://www.w3.org/2000/svg" xmlns:xlink="http://www.w3.org/1999/xlink">
    <!-- Generator: Sketch 41 (35326) - http://www.bohemiancoding.com/sketch -->
    <title>Untitled</title>
    <desc>Created with Sketch.</desc>
    <defs></defs>
    <g id="Page-1" stroke="none" stroke-width="1" fill="none" fill-rule="evenodd">
        <g id="cabinet">
            <rect id="Rectangle-path" x="15.596" y="158.203" width="412.806" height="142.954"></rect>
            <g id="Group" transform="translate(136.000000, 52.000000)" fill="#000000">
                <path d="M156.279,68.322 L15.719,68.322 C7.299,68.322 0.471,61.494 0.471,53.074 L0.471,15.853 C0.471,7.433 7.299,0.605 15.719,0.605 C24.139,0.605 30.967,7.433 30.967,15.853 L30.967,37.826 L141.03,37.826 L141.03,15.853 C141.03,7.433 147.858,0.605 156.278,0.605 C164.698,0.605 171.526,7.433 171.526,15.853 L171.526,53.074 C171.528,61.496 164.701,68.322 156.279,68.322 Z" id="Shape"></path>
                <path d="M156.279,211.531 L15.719,211.531 C7.299,211.531 0.471,204.703 0.471,196.283 L0.471,159.062 C0.471,150.642 7.299,143.814 15.719,143.814 C24.139,143.814 30.967,150.642 30.967,159.062 L30.967,181.035 L141.03,181.035 L141.03,159.062 C141.03,150.642 147.858,143.814 156.278,143.814 C164.698,143.814 171.526,150.642 171.526,159.062 L171.526,196.283 C171.528,204.704 164.701,211.531 156.279,211.531 Z" id="Shape"></path>
                <path d="M156.279,354.74 L15.719,354.74 C7.299,354.74 0.471,347.912 0.471,339.492 L0.471,302.27 C0.471,293.85 7.299,287.022 15.719,287.022 C24.139,287.022 30.967,293.85 30.967,302.27 L30.967,324.243 L141.03,324.243 L141.03,302.27 C141.03,293.85 147.858,287.022 156.278,287.022 C164.698,287.022 171.526,293.85 171.526,302.27 L171.526,339.491 C171.528,347.913 164.701,354.74 156.279,354.74 Z" id="Shape"></path>
            </g>
            <g id="Group" transform="translate(15.000000, 444.000000)">
                <rect id="Rectangle-path" x="0.596" y="0.096" width="61.924" height="52.656"></rect>
                <rect id="Rectangle-path" x="351.484" y="0.096" width="61.924" height="52.656"></rect>
            </g>
            <path d="M428.404,0 L15.596,0 C7.176,0 0.348,6.828 0.348,15.248 L0.348,89.816 C0.348,98.236 7.176,105.064 15.596,105.064 C24.016,105.064 30.844,98.236 30.844,89.816 L30.844,30.497 L413.154,30.497 L413.154,142.95 L15.596,142.95 C7.176,142.95 0.348,149.778 0.348,158.198 L0.348,301.146 L0.348,496.752 C0.348,505.172 7.176,512 15.596,512 L77.52,512 C85.94,512 92.768,505.172 92.768,496.752 L92.768,459.344 L351.23,459.344 L351.23,496.751 C351.23,505.171 358.058,511.999 366.478,511.999 L428.402,511.999 C436.822,511.999 443.65,505.171 443.65,496.751 L443.65,369.528 C443.65,361.108 436.822,354.28 428.402,354.28 C419.982,354.28 413.154,361.108 413.154,369.528 L413.154,428.846 L366.479,428.846 L77.52,428.846 L30.845,428.846 L30.845,316.393 L428.404,316.393 C436.824,316.393 443.652,309.565 443.652,301.145 L443.652,158.196 L443.652,15.248 C443.652,6.828 436.824,0 428.404,0 Z M413.155,459.344 L413.155,481.503 L381.728,481.503 L381.728,459.344 L413.155,459.344 Z M62.272,459.344 L62.272,481.503 L30.845,481.503 L30.845,459.344 L62.272,459.344 Z M413.155,285.898 L30.845,285.898 L30.845,173.446 L413.155,173.446 L413.155,285.898 Z" id="Shape" fill="#000000"></path>
        </g>
    </g>
</svg>