<?xml version="1.0" encoding="iso-8859-1"?>
<!-- Generator: Adobe Illustrator 16.0.0, SVG Export Plug-In . SVG Version: 6.00 Build 0)  -->
<!DOCTYPE svg PUBLIC "-//W3C//DTD SVG 1.1//EN" "http://www.w3.org/Graphics/SVG/1.1/DTD/svg11.dtd">
<svg version="1.1" id="Capa_1" xmlns="http://www.w3.org/2000/svg" xmlns:xlink="http://www.w3.org/1999/xlink" x="0px" y="0px"
	 width="81.693px" height="81.693px" viewBox="0 0 81.693 81.693" style="enable-background:new 0 0 81.693 81.693;"
	 xml:space="preserve">
<g>
	<g id="_x31__x5F_5">
		<g>
			<path d="M39.971,57.971c12.979,0,23.5-12.978,23.5-28.986C63.471,12.977,52.949,0,39.971,0C26.992,0,16.47,12.977,16.47,28.985
				C16.47,44.993,26.993,57.971,39.971,57.971z M39.971,5.264c10.061,0,18.244,10.642,18.244,23.721
				c0,13.082-8.185,23.723-18.244,23.723c-10.06,0-18.245-10.642-18.245-23.723C21.726,15.906,29.911,5.264,39.971,5.264z
				 M74.444,63.266l-17.801-6.508c-1.366-0.49-2.87,0.219-3.36,1.59c-0.49,1.366,0.219,2.873,1.586,3.364l17.801,6.507
				c1.678,0.604,3.207,2.778,3.207,4.564v1.892c0,1.452-1.181,1.755-2.629,1.755H8.444c-1.448,0-2.628-0.304-2.628-1.755v-1.892
				c0-1.786,1.529-3.961,3.207-4.565l16.049-6.506c1.367-0.492,2.076-1.999,1.584-3.364c-0.49-1.371-1.997-2.082-3.359-1.59
				L7.249,63.266c-3.749,1.346-6.686,5.527-6.686,9.518v1.892c0,4.354,3.536,7.019,7.882,7.019h64.804
				c4.349,0,7.883-2.664,7.883-7.019v-1.892C81.129,68.793,78.193,64.611,74.444,63.266z"/>
		</g>
	</g>
</g>
<g>
</g>
<g>
</g>
<g>
</g>
<g>
</g>
<g>
</g>
<g>
</g>
<g>
</g>
<g>
</g>
<g>
</g>
<g>
</g>
<g>
</g>
<g>
</g>
<g>
</g>
<g>
</g>
<g>
</g>
</svg>
